<?xml version="1.0" encoding="UTF-8" standalone="no"?>
<!DOCTYPE svg PUBLIC "-//W3C//DTD SVG 1.1//EN" "http://www.w3.org/Graphics/SVG/1.1/DTD/svg11.dtd">
<svg width="100%" height="100%" viewBox="0 0 500 500" version="1.1" xmlns="http://www.w3.org/2000/svg" xmlns:xlink="http://www.w3.org/1999/xlink" xml:space="preserve" xmlns:serif="http://www.serif.com/" style="fill-rule:evenodd;clip-rule:evenodd;stroke-linecap:round;stroke-linejoin:round;stroke-miterlimit:1.5;">
    <g transform="matrix(0.842627,0,0,1.32775,4.47817,59.9172)">
        <rect x="66.686" y="60.333" width="176.012" height="90.541" style="fill:white;stroke:white;stroke-width:0.9px;"/>
    </g>
    <g transform="matrix(0.842627,0,0,1.32775,225.603,55.9177)">
        <rect x="66.686" y="60.333" width="176.012" height="90.541" style="fill:white;stroke:white;stroke-width:0.9px;"/>
    </g>
    <g transform="matrix(1.54355,0,0,1.54355,-236.357,-173.377)">
        <path d="M306.222,384C306.222,384 305.449,351.224 304.431,311.737C302.9,252.333 291.904,177.855 334.136,177.844C361.374,177.836 373.019,177.844 373.019,177.844C398.331,177.844 414.831,178.875 422.519,180.938C434.331,184.031 444.222,190.758 452.19,201.117C460.159,211.477 464.144,224.859 464.144,241.266C464.144,253.922 461.847,264.563 457.253,273.188C452.659,281.813 446.823,288.586 439.745,293.508C432.667,298.43 425.472,301.688 418.159,303.281C408.222,305.25 393.831,306.234 374.987,306.234L347.847,306.234C347.847,306.234 343.22,354.692 336.283,367.653C329.735,379.886 306.222,384 306.222,384ZM421.253,212.719L401.144,212.719C386.144,212.719 376.159,213.188 371.19,214.125C364.44,215.344 358.862,218.391 354.456,223.266C350.05,228.141 347.847,234.328 347.847,241.828C347.847,247.922 349.417,253.266 352.558,257.859C355.698,262.453 360.034,265.828 365.565,267.984C371.097,270.141 382.065,271.219 398.472,271.219L421.253,271.219L421.253,212.719Z" style="stroke:white;stroke-width:5.51px;stroke-linecap:butt;stroke-miterlimit:2;"/>
    </g>
    <g transform="matrix(1.54355,0,0,1.54355,-190.001,-132.702)">
        <path d="M143.922,336.333C134.777,319.997 132.926,189.348 143.392,171.905C154.849,152.812 201.68,151.492 201.68,151.492C226.992,151.492 243.492,152.523 251.18,154.586C262.992,157.679 272.883,164.406 280.852,174.765C288.82,185.125 292.805,198.508 292.805,214.914C292.805,227.57 290.508,238.211 285.914,246.836C281.32,255.461 275.484,262.234 268.406,267.156C261.328,272.078 254.133,275.336 246.82,276.929C236.883,278.898 222.492,279.883 203.648,279.883L176.508,279.883L176.508,357.648C176.508,357.648 150.997,348.972 143.922,336.333ZM176.508,186.367L176.508,244.867L199.289,244.867C215.695,244.867 226.664,243.789 232.195,241.633C237.727,239.476 242.062,236.101 245.203,231.508C248.344,226.914 249.914,221.57 249.914,215.476C249.914,207.976 247.711,201.789 243.305,196.914C238.898,192.039 233.32,188.992 226.57,187.773C221.602,186.836 211.617,186.367 196.617,186.367L176.508,186.367Z" style="fill-rule:nonzero;stroke:white;stroke-width:5.18px;stroke-linecap:butt;stroke-miterlimit:2;"/>
    </g>
    <g transform="matrix(0.928279,0,0,1.4205,-49.905,24.9033)">
        <path d="M203.878,117.764L203.878,127.469C203.878,130.147 200.551,132.321 196.453,132.321L178.898,132.321C174.8,132.321 171.473,130.147 171.473,127.469L171.473,117.764C171.473,115.086 174.8,112.912 178.898,112.912L196.453,112.912C200.551,112.912 203.878,115.086 203.878,117.764Z"/>
    </g>
    <g transform="matrix(0.928279,0,0,1.4205,153.545,24.9033)">
        <path d="M203.878,117.764L203.878,127.469C203.878,130.147 200.551,132.321 196.453,132.321L178.898,132.321C174.8,132.321 171.473,130.147 171.473,127.469L171.473,117.764C171.473,115.086 174.8,112.912 178.898,112.912L196.453,112.912C200.551,112.912 203.878,115.086 203.878,117.764Z"/>
    </g>
    <g transform="matrix(0.928279,0,0,1.4205,-4.51372,24.9033)">
        <path d="M203.878,117.764L203.878,127.469C203.878,130.147 200.551,132.321 196.453,132.321L178.898,132.321C174.8,132.321 171.473,130.147 171.473,127.469L171.473,117.764C171.473,115.086 174.8,112.912 178.898,112.912L196.453,112.912C200.551,112.912 203.878,115.086 203.878,117.764Z"/>
    </g>
    <g transform="matrix(0.928279,0,0,1.4205,198.937,24.9033)">
        <path d="M203.878,117.764L203.878,127.469C203.878,130.147 200.551,132.321 196.453,132.321L178.898,132.321C174.8,132.321 171.473,130.147 171.473,127.469L171.473,117.764C171.473,115.086 174.8,112.912 178.898,112.912L196.453,112.912C200.551,112.912 203.878,115.086 203.878,117.764Z"/>
    </g>
</svg>
